<svg width="33" height="33" viewBox="0 0 33 33" fill="none" xmlns="http://www.w3.org/2000/svg">
<path d="M2.67962 5.26775L7.24026 0.707107C7.63079 0.316583 8.26395 0.316582 8.65447 0.707106L14.3982 6.45079C14.7887 6.84131 14.7887 7.47448 14.3982 7.865L10.6324 11.6307C10.0976 12.1656 9.965 12.9826 10.3033 13.6592C12.2587 17.5701 15.4299 20.7413 19.3408 22.6967C20.0174 23.035 20.8344 22.9024 21.3693 22.3676L25.135 18.6018C25.5255 18.2113 26.1587 18.2113 26.5492 18.6018L32.2929 24.3455C32.6834 24.736 32.6834 25.3692 32.2929 25.7597L27.7323 30.3204C25.6209 32.4317 22.2783 32.6693 19.8896 30.8777L12.3654 25.2346C10.6219 23.9269 9.07306 22.3781 7.76541 20.6346L2.12226 13.1104C0.330722 10.7217 0.568268 7.3791 2.67962 5.26775Z" fill="white"/>
</svg>
