<svg width="57" height="57" viewBox="0 0 57 57" fill="none" xmlns="http://www.w3.org/2000/svg">
<path d="M47.5 27.3125C47.5 40.0397 31.6435 48.3429 28.9015 49.6836C28.6422 49.8104 28.3578 49.8104 28.0985 49.6836C25.3565 48.3429 9.5 40.0397 9.5 27.3125C9.5 16.625 18.7062 9.5 28.5 9.5C38.6333 9.5 47.5 16.625 47.5 27.3125Z" fill="#FFA900" stroke="#FFA900" stroke-width="2"/>
<path d="M21.3041 28.0504L28.2364 35.3475C28.3601 35.4777 28.4219 35.5428 28.5 35.5428C28.5781 35.5428 28.6399 35.4777 28.7636 35.3475L35.6959 28.0504L35.696 28.0503C35.8444 27.894 35.9187 27.8159 35.9816 27.7429C37.0857 26.4624 37.2655 24.6261 36.4307 23.1559C36.3831 23.0721 36.3255 22.981 36.2102 22.799L36.2101 22.7988C35.9792 22.4342 35.8637 22.2519 35.7732 22.1305C34.1061 19.8925 30.7175 20.0065 29.2044 22.3513C29.1223 22.4786 29.0194 22.6682 28.8135 23.0475L28.6481 23.3521C28.6341 23.378 28.6271 23.3909 28.6212 23.399C28.5613 23.4811 28.4387 23.4811 28.3788 23.399C28.3729 23.3909 28.3659 23.378 28.3519 23.3521L28.1865 23.0475C27.9806 22.6682 27.8777 22.4786 27.7956 22.3513C26.2825 20.0065 22.8939 19.8925 21.2268 22.1305C21.1363 22.2519 21.0208 22.4342 20.7899 22.7988C20.6746 22.981 20.6169 23.072 20.5693 23.1559C19.7345 24.6261 19.9143 26.4624 21.0184 27.7429C21.0813 27.8159 21.1556 27.894 21.304 28.0503L21.3041 28.0504Z" stroke="white" stroke-width="2"/>
</svg>
