<svg width="28" height="32" viewBox="0 0 28 32" fill="none" xmlns="http://www.w3.org/2000/svg">
<path fill-rule="evenodd" clip-rule="evenodd" d="M8.27791 15.0186C8.00457 14.8233 7.8679 14.7257 7.73225 14.7137C7.61327 14.7031 7.49445 14.7355 7.39729 14.805C7.28651 14.8842 7.2183 15.0377 7.08187 15.3447L0.325253 30.547C0.0817094 31.095 -0.0400625 31.369 0.0117948 31.5453C0.0567985 31.6983 0.17207 31.8206 0.322104 31.8746C0.494986 31.9369 0.775724 31.8316 1.3372 31.621L13.6983 26.9856C13.8022 26.9466 13.8542 26.9271 13.9077 26.9194C13.9551 26.9126 14.0033 26.9126 14.0507 26.9194C14.1042 26.9271 14.1561 26.9466 14.2601 26.9856L26.6212 31.621C27.1826 31.8316 27.4634 31.9369 27.6363 31.8746C27.7863 31.8206 27.9016 31.6983 27.9466 31.5453C27.9984 31.369 27.8767 31.095 27.6331 30.547L20.8765 15.3446C20.7401 15.0377 20.6718 14.8842 20.5611 14.805C20.4639 14.7355 20.3451 14.7031 20.2261 14.7137C20.0905 14.7257 19.9538 14.8233 19.6804 15.0186L14.5604 18.6757C14.2127 18.9241 13.7456 18.9241 13.3979 18.6757L8.27791 15.0186ZM8.57432 11.9866C8.47985 12.1992 8.43262 12.3055 8.43183 12.4096C8.43113 12.5014 8.45573 12.5917 8.50294 12.6704C8.55646 12.7597 8.6511 12.8273 8.84038 12.9625L13.5142 16.301C13.6815 16.4205 13.7651 16.4802 13.8564 16.5033C13.937 16.5238 14.0214 16.5238 14.1019 16.5033C14.1932 16.4802 14.2768 16.4205 14.4442 16.301L19.118 12.9625C19.3072 12.8273 19.4019 12.7597 19.4554 12.6704C19.5026 12.5916 19.5272 12.5014 19.5265 12.4096C19.5257 12.3055 19.4785 12.1992 19.384 11.9866L14.7102 1.47057C14.4787 0.949629 14.3629 0.689157 14.2016 0.609026C14.0615 0.539423 13.8969 0.539423 13.7567 0.609026C13.5954 0.689157 13.4797 0.94963 13.2481 1.47058L8.57432 11.9866Z" fill="white"/>
</svg>
