<svg width="93" height="28" viewBox="0 0 93 28" fill="none" xmlns="http://www.w3.org/2000/svg">
<path d="M1.3 27.8C0.666667 27.8 0.35 27.3 0.35 26.3V25.65C0.35 25.45 0.383333 25.25 0.45 25.05C0.516667 24.8833 0.666667 24.7 0.9 24.5C1.3 24.1333 1.7 23.7667 2.1 23.4C2.5 23.0333 2.88333 22.65 3.25 22.25C3.31667 22.1833 3.38333 22.15 3.45 22.15C3.51667 22.1167 3.56667 22.0833 3.6 22.05C3.66667 21.9833 3.76667 21.8333 3.9 21.6C4.03333 21.3667 4.18333 21.1833 4.35 21.05C4.51667 20.9167 4.66667 20.8167 4.8 20.75C4.93333 20.65 5.01667 20.4833 5.05 20.25C5.41667 19.8167 5.78333 19.3833 6.15 18.95C6.51667 18.4833 6.86667 18.0167 7.2 17.55C7.46667 17.4167 7.73333 17.0667 8 16.5C8.26667 15.9333 8.51667 15.5167 8.75 15.25C8.91667 15.25 9.01667 15.15 9.05 14.95C9.08333 14.75 9.13333 14.5833 9.2 14.45C9.66667 13.65 10.1 12.8667 10.5 12.1C10.9 11.3333 11.2167 10.5167 11.45 9.65C11.5167 9.48333 11.5833 9.35 11.65 9.25C11.75 9.11667 11.8167 8.98333 11.85 8.85V8.65C11.85 8.51667 11.8167 8.38333 11.75 8.25C11.7167 8.08333 11.7167 7.91667 11.75 7.75C11.7833 7.58333 11.8167 7.33333 11.85 7C11.8833 6.63333 11.9333 6.4 12 6.3C12.1 6.13333 12.1833 6.08333 12.25 6.15C12.35 6.21667 12.4167 6.2 12.45 6.1C12.4833 6.03333 12.5 5.93333 12.5 5.8C12.5333 5.63333 12.55 5.51667 12.55 5.45C12.55 5.41667 12.5333 5.4 12.5 5.4C12.4667 5.4 12.3667 5.46667 12.2 5.6C12.0667 5.7 12 5.71667 12 5.65L11.95 5.15C11.8167 4.95 11.7167 4.81667 11.65 4.75C11.6167 4.65 11.6167 4.48333 11.65 4.25V4.1C11.65 3.83333 11.4667 3.73333 11.1 3.8C10.6 3.5 10.1667 3.35 9.8 3.35C9.46667 3.35 9.15 3.41667 8.85 3.55C8.55 3.65 8.25 3.7 7.95 3.7C7.68333 3.7 7.55 3.58333 7.55 3.35C7.55 3.15 7.68333 2.98333 7.95 2.85C8.25 2.68333 8.56667 2.56667 8.9 2.5C9.23333 2.43333 9.48333 2.4 9.65 2.4C10.0833 2.4 10.5333 2.46667 11 2.6C11.4667 2.73333 11.8667 2.93333 12.2 3.2C12.7667 3.63333 13.15 4.18333 13.35 4.85C13.5833 5.48333 13.7 6.13333 13.7 6.8C13.7 7.4 13.65 8 13.55 8.6C13.45 9.16667 13.3167 9.71667 13.15 10.25C13.0833 10.5167 12.9833 10.7833 12.85 11.05C12.7167 11.3167 12.6 11.5833 12.5 11.85C12.4667 11.95 12.4333 12.0833 12.4 12.25C12.3667 12.4167 12.35 12.5833 12.35 12.75C12.35 13.0167 12.4167 13.15 12.55 13.15C12.65 13.15 12.8167 13.0333 13.05 12.8C14.1833 11.6667 15.3 10.5333 16.4 9.4C17.5333 8.26667 18.7 7.18333 19.9 6.15C20.1667 5.91667 20.4333 5.7 20.7 5.5C20.9667 5.3 21.2167 5.08333 21.45 4.85C21.5167 4.75 21.6167 4.65 21.75 4.55C21.8833 4.45 21.9833 4.38333 22.05 4.35C22.45 4.08333 22.8167 3.81667 23.15 3.55C23.4833 3.25 23.8333 2.98333 24.2 2.75C24.7 2.45 25.2 2.16667 25.7 1.9C26.2333 1.6 26.7667 1.35 27.3 1.15H27.35C27.45 1.11667 27.5167 1.11667 27.55 1.15C27.6167 1.18333 27.6833 1.2 27.75 1.2C27.85 1.13333 27.9167 1.06667 27.95 1C28.0167 0.933333 28.1167 0.883332 28.25 0.849999C28.7167 0.749999 29.1833 0.699999 29.65 0.699999C30.3167 0.699999 30.95 0.799999 31.55 1C32.15 1.2 32.65 1.53333 33.05 2C33.1167 2.16667 33.1667 2.31667 33.2 2.45C33.2333 2.55 33.35 2.63333 33.55 2.7C33.7833 3.13333 33.9333 3.58333 34 4.05C34.1 4.48333 34.15 4.93333 34.15 5.4C34.15 6.03333 34.1 6.65 34 7.25C33.9667 7.51667 33.8833 7.8 33.75 8.1C33.65 8.36667 33.6167 8.65 33.65 8.95L33.6 9.05C33.4 9.31667 33.3333 9.58333 33.4 9.85L33.3 10.2C33.1 10.3 33 10.45 33 10.65C33 10.8167 33 11 33 11.2H32.95C32.5167 12.5333 32 13.8333 31.4 15.1C30.8 16.3333 30.1667 17.55 29.5 18.75C29.5 18.7833 29.4333 18.9333 29.3 19.2C29.1667 19.4667 29.05 19.7333 28.95 20C28.8833 20.2667 28.9167 20.4 29.05 20.4C29.25 20.4 29.45 20.3 29.65 20.1C29.85 19.8667 30.0167 19.6833 30.15 19.55C30.4167 19.2833 30.6333 19 30.8 18.7C31 18.3667 31.2167 18.0833 31.45 17.85C31.5167 17.75 31.6 17.6667 31.7 17.6C31.8 17.5 31.9 17.4167 32 17.35C32.1667 17.2167 32.3 17.05 32.4 16.85C32.5 16.65 32.6167 16.4833 32.75 16.35L33.85 15.1C34.1167 15.1 34.2833 15 34.35 14.8C34.4167 14.6 34.5167 14.4167 34.65 14.25C34.7833 14.05 35.0833 13.7 35.55 13.2C36.0167 12.7 36.3667 12.3667 36.6 12.2C36.9667 11.8667 37.3833 11.7 37.85 11.7C38.55 11.7 39.1333 12.1167 39.6 12.95C39.6667 13.0833 39.7833 13.4 39.95 13.9C40.15 14.4 40.25 14.7 40.25 14.8C40.25 14.9 40.2167 15.0167 40.15 15.15C40.1167 15.25 40.1167 15.3333 40.15 15.4C40.2167 15.4667 40.2667 15.4833 40.3 15.45C40.3667 15.4167 40.4167 15.4833 40.45 15.65C40.55 15.85 40.6167 16.1 40.65 16.4C40.7167 16.7 40.7667 16.9667 40.8 17.2C40.8333 17.3667 40.8333 17.55 40.8 17.75C40.8 17.9167 40.8167 18.0833 40.85 18.25C40.9167 18.35 40.9667 18.4333 41 18.5C41.0333 18.5667 41.0667 18.6667 41.1 18.8C41.2333 19.3333 41.3833 19.8667 41.55 20.4C41.7167 20.9 41.9 21.4 42.1 21.9L42.15 21.95C42.15 22.35 42.3 22.5833 42.6 22.65C43.2 23.45 43.9667 23.85 44.9 23.85C45.0333 23.85 45.15 23.8333 45.25 23.8C45.3833 23.7667 45.5167 23.7333 45.65 23.7C45.85 23.7 46.0167 23.75 46.15 23.85C46.3167 23.95 46.2667 24.0833 46 24.25C45.5 24.5833 44.9833 24.75 44.45 24.75C43.4833 24.75 42.6667 24.5 42 24C41.3667 23.4667 40.8333 22.8167 40.4 22.05C40 21.2833 39.65 20.5 39.35 19.7L39.5 19.55C39.7667 19.45 39.9 19.3667 39.9 19.3C39.9 19.2333 39.8167 19.1833 39.65 19.15C39.5167 19.0833 39.3667 19.0667 39.2 19.1C38.8667 18.5333 38.6167 17.9333 38.45 17.3C38.3167 16.6333 38.1 16 37.8 15.4C37.4 14.5667 36.95 14.15 36.45 14.15C36.1167 14.15 35.8 14.3167 35.5 14.65C35.2 14.95 34.8667 15.2833 34.5 15.65L33.1 17.2C32.7667 17.3 32.5833 17.5333 32.55 17.9C31.95 18.5667 31.3167 19.2667 30.65 20C30.0167 20.7 29.3167 21.3167 28.55 21.85C28.05 22.1833 27.4833 22.35 26.85 22.35C26.55 22.35 26.2833 22.2833 26.05 22.15C25.8167 22.0167 25.7 21.7833 25.7 21.45C25.7 21.35 25.7333 21.1667 25.8 20.9C25.9333 20.4667 26.1167 20.0833 26.35 19.75C26.6167 19.4167 26.8667 19.0833 27.1 18.75C27.3667 18.35 27.6333 17.85 27.9 17.25C28.2 16.6167 28.4667 16.15 28.7 15.85C28.8 15.6833 28.9 15.5333 29 15.4C29.1333 15.2667 29.2 15.1 29.2 14.9L29.6 13.95C29.8667 13.85 30 13.7167 30 13.55C30 13.3833 30.0167 13.2 30.05 13C30.0833 12.8 30.15 12.6167 30.25 12.45C30.3833 12.25 30.4667 12.05 30.5 11.85C30.6333 11.35 30.8167 10.8833 31.05 10.45C31.2833 9.98333 31.4167 9.48333 31.45 8.95V8.9C31.65 8.13333 31.8167 7.36667 31.95 6.6C32.0833 5.8 32.15 5.01667 32.15 4.25C32.15 3.55 32.0167 2.98333 31.75 2.55C31.5167 2.11667 31 1.9 30.2 1.9C29.9667 1.9 29.7 1.86667 29.4 1.8C29.1 1.73333 28.8167 1.73333 28.55 1.8C28.4833 1.76667 28.4 1.75 28.3 1.75C28.1667 1.75 28 1.85 27.8 2.05L27.6 2.1L27.4 2.05C27.2667 2.05 27.1333 2.11667 27 2.25C26.9 2.38333 26.7833 2.5 26.65 2.6H26.6C25.4667 3.13333 24.4 3.78333 23.4 4.55C22.4 5.28333 21.4167 6.03333 20.45 6.8C20.4167 6.83333 20.35 6.88333 20.25 6.95C20.15 6.98333 20.0833 7.03333 20.05 7.1C18.7833 8.13333 17.55 9.23333 16.35 10.4C15.1833 11.5667 14.0333 12.7333 12.9 13.9C12.6333 13.9 12.4667 14.05 12.4 14.35C12.2333 14.4167 12.1333 14.5167 12.1 14.65C12.1 14.7833 12.0667 14.9333 12 15.1C11.8 15.3333 11.5667 15.5667 11.3 15.8C11.0333 16.0333 10.8167 16.2833 10.65 16.55C10.5167 16.7833 10.2667 17.1 9.9 17.5C9.56667 17.9 9.3 18.2 9.1 18.4C8.96667 18.5333 8.8 18.65 8.6 18.75C8.43333 18.85 8.35 19.0333 8.35 19.3C8.21667 19.5 8.06667 19.7167 7.9 19.95C7.73333 20.15 7.56667 20.3333 7.4 20.5C7.06667 20.8667 6.78333 21.2833 6.55 21.75C6.35 22.1833 6.06667 22.5667 5.7 22.9C5.63333 23 5.5 23.1167 5.3 23.25C5.13333 23.3833 5.01667 23.4833 4.95 23.55C4.91667 23.6167 4.9 23.6833 4.9 23.75C4.93333 23.7833 4.91667 23.8667 4.85 24C4.61667 24.4333 4.35 24.8667 4.05 25.3C3.78333 25.7667 3.5 26.2 3.2 26.6C2.96667 26.9333 2.66667 27.2167 2.3 27.45C1.93333 27.6833 1.6 27.8 1.3 27.8ZM50.1703 24.1C49.337 24.1 48.6036 23.8667 47.9703 23.4C47.337 22.9333 47.0203 22.1333 47.0203 21C47.0203 20.5667 47.0703 20.1333 47.1703 19.7C47.2703 19.2333 47.387 18.7833 47.5203 18.35C47.587 17.9167 47.687 17.5333 47.8203 17.2C47.8536 17.0667 47.8703 17 47.8703 17C47.9036 16.9667 47.987 16.9167 48.1203 16.85L48.5203 16.25V16.05C48.487 16.05 48.4703 16.05 48.4703 16.05C48.4703 16.0167 48.4703 16 48.4703 16C48.4703 15.9 48.5536 15.7833 48.7203 15.65C48.887 15.5167 48.9703 15.45 48.9703 15.45C49.0036 15.2833 49.0536 15.2 49.1203 15.2C49.187 15.2 49.2703 15.15 49.3703 15.05H49.9203V14.95C49.9203 14.7833 49.837 14.7167 49.6703 14.75C49.537 14.75 49.4703 14.7333 49.4703 14.7C49.4703 14.6667 49.5203 14.6 49.6203 14.5C49.7536 14.3667 49.837 14.2833 49.8703 14.25C49.9703 14.1167 50.0536 14 50.1203 13.9C50.187 13.7667 50.287 13.6667 50.4203 13.6C51.0203 12.8667 51.387 12.4 51.5203 12.2C51.687 12 51.8536 11.85 52.0203 11.75C52.087 11.75 52.137 11.7833 52.1703 11.85C52.237 11.8833 52.237 11.9333 52.1703 12C52.237 12.1 52.287 12.1167 52.3203 12.05C52.387 11.9833 52.4203 11.95 52.4203 11.95L52.6203 11.85C52.5536 11.7833 52.5203 11.7 52.5203 11.6C52.5203 11.4333 52.5536 11.3 52.6203 11.2C52.687 11.0667 52.8036 10.9333 52.9703 10.8C53.1703 10.6667 53.2703 10.5833 53.2703 10.55C53.4703 10.4833 53.6203 10.4167 53.7203 10.35C53.8536 10.2833 53.987 10.25 54.1203 10.25C54.3536 10.25 54.587 10.3333 54.8203 10.5C55.4536 10.8333 55.987 11.1667 56.4203 11.5C56.8536 11.8333 57.0703 12.3 57.0703 12.9C57.0703 13.5333 56.8036 14.0833 56.2703 14.55C55.7703 14.9833 55.1536 15.35 54.4203 15.65C53.687 15.95 52.9536 16.2 52.2203 16.4C51.5203 16.5667 50.9703 16.7 50.5703 16.8C50.337 16.8333 50.2203 16.9333 50.2203 17.1C50.2536 17.2333 50.237 17.3833 50.1703 17.55L49.8203 18.1L49.5203 18.8L49.2703 19.25C49.037 19.45 48.9536 19.6 49.0203 19.7C49.087 19.8 49.2036 19.7833 49.3703 19.65C49.4036 19.6833 49.4203 19.7333 49.4203 19.8C49.4203 19.9333 49.387 20.1 49.3203 20.3C49.2536 20.4667 49.2036 20.6 49.1703 20.7C49.137 20.8333 49.137 20.9 49.1703 20.9C49.237 20.8667 49.2703 20.9333 49.2703 21.1L49.3203 21.8C49.5203 22.4333 49.9703 22.8 50.6703 22.9C50.737 22.9 50.8036 22.9167 50.8703 22.95C50.9703 22.95 51.0536 22.95 51.1203 22.95C51.7203 22.95 52.037 22.9 52.0703 22.8C52.137 22.7 52.2203 22.6333 52.3203 22.6C52.6203 22.5333 52.8703 22.4667 53.0703 22.4C53.3036 22.3333 53.537 22.2333 53.7703 22.1C54.1703 21.9333 54.5536 21.7167 54.9203 21.45C55.287 21.1833 55.6703 20.9167 56.0703 20.65L56.5703 20.3C56.6036 20.2333 56.6036 20.1833 56.5703 20.15C56.537 20.1167 56.537 20.0833 56.5703 20.05C56.637 20.0167 56.687 20.0167 56.7203 20.05C56.787 20.05 56.837 20.0333 56.8703 20C56.937 19.9667 57.0036 19.9167 57.0703 19.85C57.137 19.75 57.2036 19.6667 57.2703 19.6C57.337 19.5333 57.3703 19.4667 57.3703 19.4C57.4036 19.3333 57.4536 19.2667 57.5203 19.2C57.787 18.9333 58.0536 18.65 58.3203 18.35C58.6203 18.05 58.8703 17.7833 59.0703 17.55C59.3036 17.2167 59.487 17.05 59.6203 17.05C59.687 17.05 59.7203 17.0833 59.7203 17.15C59.7203 17.3167 59.6036 17.5667 59.3703 17.9C58.8036 18.7333 58.1536 19.55 57.4203 20.35C56.687 21.1167 55.887 21.8167 55.0203 22.45C54.387 22.8833 53.637 23.2667 52.7703 23.6C51.9036 23.9333 51.037 24.1 50.1703 24.1ZM50.9203 16.05C51.4203 16.0167 52.0703 15.8833 52.8703 15.65C53.6703 15.3833 54.337 15.0333 54.8703 14.6C55.437 14.1333 55.7203 13.6167 55.7203 13.05C55.7203 12.5167 55.437 12 54.8703 11.5C54.4036 11.8333 53.887 12.3167 53.3203 12.95C52.787 13.55 52.3036 14.15 51.8703 14.75C51.437 15.3167 51.1203 15.75 50.9203 16.05ZM58.4543 24.15C58.2543 24.15 58.1543 24.0333 58.1543 23.8C58.1543 23.6333 58.2043 23.4333 58.3043 23.2C58.571 22.6333 58.8876 21.8333 59.2543 20.8C59.621 19.7667 60.071 18.8833 60.6043 18.15L62.5543 13.8C62.5543 13.8 62.521 13.7833 62.4543 13.75C62.3876 13.6833 62.3543 13.6167 62.3543 13.55C62.1543 13.4167 61.9376 13.2333 61.7043 13C61.5043 12.7333 61.4876 12.4667 61.6543 12.2C61.721 12.1333 61.771 12.1 61.8043 12.1C61.8376 12.1 61.8543 12.1 61.8543 12.1V12C61.8543 11.8667 61.9043 11.7833 62.0043 11.75C62.1376 11.7167 62.221 11.6667 62.2543 11.6C62.321 11.1333 62.7043 10.7833 63.4043 10.55C64.1376 10.3167 64.7876 10.2 65.3543 10.2C65.921 10.2 66.2043 10.2833 66.2043 10.45C66.2043 10.55 66.1043 10.6667 65.9043 10.8C65.8376 10.8667 65.671 11.0167 65.4043 11.25C65.171 11.4833 64.9543 11.7667 64.7543 12.1L64.4043 12.7L64.0543 13.15C63.521 14.1167 63.0876 14.9333 62.7543 15.6C62.421 16.2667 62.021 17.1167 61.5543 18.15C61.4543 18.35 61.4043 18.5167 61.4043 18.65C61.4043 18.8167 61.471 18.9 61.6043 18.9C61.671 18.9 61.7376 18.8833 61.8043 18.85C61.9043 18.7833 62.0043 18.7333 62.1043 18.7C62.371 18.5333 62.5876 18.3833 62.7543 18.25C62.9543 18.0833 63.171 17.9167 63.4043 17.75C63.5043 17.65 63.5876 17.65 63.6543 17.75C63.721 17.8167 63.721 17.9167 63.6543 18.05C63.521 18.3167 63.421 18.4833 63.3543 18.55C63.321 18.5833 63.271 18.6167 63.2043 18.65C63.1376 18.6833 62.9876 18.8333 62.7543 19.1L62.5543 19.5C62.4876 19.5667 62.4043 19.7 62.3043 19.9C62.2376 20.0667 62.2043 20.1667 62.2043 20.2C62.2043 20.2667 62.171 20.3 62.1043 20.3C62.0376 20.2667 61.9376 20.3167 61.8043 20.45C61.771 20.4833 61.7543 20.55 61.7543 20.65C61.7876 20.75 61.771 20.8333 61.7043 20.9C61.671 21 61.621 21.0833 61.5543 21.15C61.4876 21.1833 61.4543 21.2167 61.4543 21.25C61.421 21.3833 61.3543 21.4667 61.2543 21.5C61.1876 21.5 61.121 21.5333 61.0543 21.6C61.021 21.6 61.0043 21.6333 61.0043 21.7C61.0043 21.9667 60.971 22.0833 60.9043 22.05C60.8376 22.0167 60.771 22.05 60.7043 22.15C60.6376 22.2833 60.5543 22.35 60.4543 22.35C60.2543 22.4167 60.171 22.4667 60.2043 22.5C60.2376 22.5333 60.2876 22.5667 60.3543 22.6C60.421 22.6 60.371 22.65 60.2043 22.75C60.1043 22.7833 60.021 22.8833 59.9543 23.05C59.8876 23.1833 59.821 23.2833 59.7543 23.35C59.6876 23.4167 59.6043 23.4667 59.5043 23.5C59.4043 23.5333 59.321 23.6 59.2543 23.7C58.9543 24 58.6876 24.15 58.4543 24.15ZM73.3543 23.75C73.221 23.75 73.1043 23.75 73.0043 23.75C72.9043 23.7167 72.8043 23.6833 72.7043 23.65C72.371 23.5833 72.071 23.4833 71.8043 23.35C71.571 23.2167 71.371 22.9667 71.2043 22.6C71.171 22.4333 71.0876 22.2167 70.9543 21.95C70.8543 21.6833 70.7876 21.4333 70.7543 21.2C70.721 21.0333 70.7043 20.8333 70.7043 20.6C70.671 20.4333 70.6543 20.2167 70.6543 19.95C70.5876 19.6167 70.5543 19.3167 70.5543 19.05C70.5876 18.7833 70.6043 18.4667 70.6043 18.1C70.6043 17.7333 70.621 17.4667 70.6543 17.3C70.721 17 70.7543 16.85 70.7543 16.85C70.7543 16.8167 70.7543 16.65 70.7543 16.35C70.7876 15.95 70.8043 15.5333 70.8043 15.1C70.8043 14.6667 70.821 14.3167 70.8543 14.05C70.9543 13.05 70.7543 12.55 70.2543 12.55C70.0543 12.55 69.7876 12.6333 69.4543 12.8C69.421 12.9 69.3543 12.9667 69.2543 13C69.1876 13 69.0876 13.0333 68.9543 13.1L68.7043 13.25C68.7043 13.2833 68.671 13.3 68.6043 13.3C68.5376 13.2667 68.5043 13.2833 68.5043 13.35C68.5376 13.4833 68.521 13.5667 68.4543 13.6C68.421 13.6333 68.371 13.6167 68.3043 13.55L67.7543 13.95C67.7543 13.9833 67.7043 14.05 67.6043 14.15L67.5543 14.2C67.421 14.3333 67.3043 14.4 67.2043 14.4L67.0543 14.55C67.0543 14.5833 67.021 14.65 66.9543 14.75C66.921 14.8167 66.8376 14.8333 66.7043 14.8L66.4543 15.05C66.321 15.25 66.2043 15.3667 66.1043 15.4C66.0376 15.4333 65.9543 15.4667 65.8543 15.5L65.4543 16L65.2543 16.05C65.2543 16.1833 65.1043 16.3833 64.8043 16.65C64.5376 16.9167 64.3543 17.1 64.2543 17.2C64.1543 17.3 64.0543 17.35 63.9543 17.35C63.8876 17.35 63.8543 17.3167 63.8543 17.25C63.8543 17.2167 63.9376 17.0833 64.1043 16.85C64.2376 16.7167 64.4376 16.4667 64.7043 16.1C65.0043 15.7333 65.171 15.5667 65.2043 15.6C65.371 15.4333 65.4876 15.2667 65.5543 15.1C65.621 14.9 65.7376 14.7333 65.9043 14.6C65.9043 14.6333 65.9043 14.6667 65.9043 14.7C65.9376 14.7 65.9543 14.7 65.9543 14.7C66.021 14.7 66.1043 14.6167 66.2043 14.45C66.3043 14.25 66.371 14.1667 66.4043 14.2L67.2543 13.45C67.2543 13.4167 67.3376 13.35 67.5043 13.25C67.6376 13.1833 67.721 13.15 67.7543 13.15C67.7876 13.15 67.871 13.05 68.0043 12.85L68.3543 12.6C68.3876 12.5333 68.421 12.55 68.4543 12.65C68.521 12.7167 68.571 12.7333 68.6043 12.7L68.7543 12.35C68.821 12.25 68.921 12.1667 69.0543 12.1C69.221 12 69.3876 11.9 69.5543 11.8C69.9543 11.4 70.2543 11.2 70.4543 11.2H70.6543C71.0876 11.0333 71.4876 10.95 71.8543 10.95C72.3876 10.95 72.8043 11.15 73.1043 11.55C73.171 11.65 73.2376 11.8333 73.3043 12.1C73.371 12.1333 73.3876 12.1833 73.3543 12.25C73.3543 12.2833 73.371 12.3333 73.4043 12.4C73.4376 12.4667 73.5043 12.55 73.6043 12.65C73.7043 12.7167 73.7543 12.8 73.7543 12.9V13C73.7543 13.1333 73.671 13.25 73.5043 13.35C73.671 13.4833 73.7376 13.5667 73.7043 13.6C73.7043 13.6 73.6876 13.65 73.6543 13.75L73.5543 14.45C73.521 14.6833 73.471 14.8667 73.4043 15C73.3376 15.1 73.271 15.2833 73.2043 15.55C73.3376 15.75 73.3376 15.8833 73.2043 15.95H73.1043L73.0543 16.15C73.0543 16.2167 73.0876 16.2833 73.1543 16.35L73.0043 16.65C73.0376 16.6167 73.0543 16.6167 73.0543 16.65C73.0876 16.65 73.1043 16.65 73.1043 16.65C73.071 16.7167 73.021 16.85 72.9543 17.05C72.8876 17.2167 72.8376 17.35 72.8043 17.45C72.771 17.6167 72.7043 17.7 72.6043 17.7C72.5043 17.7 72.471 17.7833 72.5043 17.95C72.5376 17.9833 72.5543 18.1 72.5543 18.3C72.5876 18.4667 72.571 18.55 72.5043 18.55L72.4043 19.15V19.3C72.4043 19.4667 72.371 19.6333 72.3043 19.8C72.271 19.9667 72.2376 20.1333 72.2043 20.3C72.171 20.4667 72.1376 20.65 72.1043 20.85C72.1043 21.0167 72.1043 21.1833 72.1043 21.35C72.1043 21.4833 72.1043 21.6333 72.1043 21.8C72.1376 21.9333 72.171 22.0667 72.2043 22.2C72.2043 22.2333 72.2543 22.3333 72.3543 22.5C72.4543 22.6667 72.5043 22.7667 72.5043 22.8L72.6543 22.95C72.721 22.9833 72.821 22.9833 72.9543 22.95C73.121 22.9167 73.2376 22.9333 73.3043 23C73.6043 23.0333 73.9876 22.8833 74.4543 22.55C74.9543 22.1833 75.4043 21.7833 75.8043 21.35C75.9043 21.25 76.0043 21.2 76.1043 21.2C76.171 21.2 76.221 21.25 76.2543 21.35C76.2876 21.45 76.2543 21.5833 76.1543 21.75C75.621 22.5167 75.121 23.05 74.6543 23.35C74.1876 23.6167 73.7543 23.75 73.3543 23.75ZM87.3066 23.95C86.8066 23.95 86.44 23.7333 86.2066 23.3C86.1733 23.2 86.09 23.05 85.9566 22.85C85.8566 22.65 85.7733 22.4833 85.7066 22.35V22.3C85.7066 22.2333 85.7233 22.1667 85.7566 22.1C85.79 22.0333 85.8066 21.9667 85.8066 21.9C85.8066 21.7667 85.7733 21.65 85.7066 21.55C85.64 21.4167 85.6066 21.2833 85.6066 21.15C85.6066 20.6833 85.74 20.1333 86.0066 19.5C86.3066 18.8667 86.54 18.3167 86.7066 17.85C86.7733 17.5833 86.94 17.2667 87.2066 16.9C87.24 16.8667 87.2733 16.85 87.3066 16.85C87.3733 16.85 87.4233 16.8333 87.4566 16.8C87.5233 16.7 87.5566 16.6 87.5566 16.5C87.59 16.3667 87.6233 16.25 87.6566 16.15C87.69 16.0833 87.7566 16.05 87.8566 16.05C87.9566 16.05 88.0233 16.0167 88.0566 15.95C88.09 15.8833 88.04 15.85 87.9066 15.85C87.7733 15.85 87.7233 15.8167 87.7566 15.75C87.99 15.3167 88.24 14.8667 88.5066 14.4C88.8066 13.9333 89.0066 13.6333 89.1066 13.5C89.0733 13.5333 89.0566 13.5 89.0566 13.4C89.0566 13.2667 89.0233 13.2167 88.9566 13.25C88.9233 13.2833 88.84 13.3667 88.7066 13.5C88.5733 13.6333 88.4733 13.7333 88.4066 13.8C88.24 13.9333 88.04 14.1167 87.8066 14.35C87.5733 14.5833 87.4233 14.7333 87.3566 14.8C87.2566 14.8333 87.1233 14.9833 86.9566 15.25C86.79 15.4833 86.6733 15.6333 86.6066 15.7C86.4733 15.8333 86.34 15.9 86.2066 15.9C86.14 15.9 86.09 15.8667 86.0566 15.8C86.0566 15.7 86.09 15.6 86.1566 15.5C86.2233 15.4333 86.29 15.35 86.3566 15.25C86.4233 15.1167 86.4733 15.0167 86.5066 14.95C86.54 14.9167 86.59 14.8667 86.6566 14.8C86.7233 14.7 86.7566 14.6333 86.7566 14.6L87.1566 14.15C87.19 14.1167 87.2566 14.1167 87.3566 14.15C87.4566 14.15 87.5233 14.1333 87.5566 14.1C87.59 14.0333 87.54 14 87.4066 14C87.3066 13.9667 87.2733 13.9333 87.3066 13.9C87.6066 13.3667 87.99 12.85 88.4566 12.35C88.9233 11.85 89.24 11.5 89.4066 11.3C89.5733 11.1 89.79 10.95 90.0566 10.85C90.3566 10.7167 90.64 10.65 90.9066 10.65C91.14 10.65 91.3066 10.6667 91.4066 10.7C91.6066 10.7667 91.84 10.8667 92.1066 11C92.4066 11.1 92.59 11.25 92.6566 11.45C92.7566 11.65 92.69 11.9667 92.4566 12.4C92.2233 12.8333 91.94 13.2667 91.6066 13.7C91.3066 14.1 91.0566 14.3667 90.8566 14.5C90.8233 14.5333 90.74 14.55 90.6066 14.55C90.4733 14.55 90.3066 14.55 90.1066 14.55C89.9066 14.5167 89.79 14.5333 89.7566 14.6C89.6566 14.7333 89.54 14.8667 89.4066 15C89.2733 15.1 89.1733 15.2333 89.1066 15.4C89.0733 15.6 89.0233 15.7667 88.9566 15.9C88.9233 16.0333 88.8233 16.2333 88.6566 16.5C88.6233 16.5667 88.5566 16.6833 88.4566 16.85C88.3566 16.9833 88.29 17.0833 88.2566 17.15C88.0233 17.8833 87.8066 18.5833 87.6066 19.25C87.44 19.8833 87.3566 20.4167 87.3566 20.85C87.3566 21.2833 87.49 21.6667 87.7566 22C88.0233 22.3 88.3733 22.45 88.8066 22.45C89.3066 22.45 89.84 22.2833 90.4066 21.95C90.74 21.8167 91.1066 21.5667 91.5066 21.2C91.5733 21.1333 91.6233 21.0833 91.6566 21.05C91.7233 20.9833 91.79 20.9333 91.8566 20.9H92.0066C92.1733 20.9 92.2566 20.9667 92.2566 21.1C92.2566 21.2333 92.14 21.4 91.9066 21.6C91.7733 21.7 91.64 21.7833 91.5066 21.85C91.4066 21.9167 91.29 22 91.1566 22.1C90.99 22.2 90.8066 22.3667 90.6066 22.6C90.4066 22.8 90.1733 22.9 89.9066 22.9H89.8566C89.7566 22.9 89.6733 22.8833 89.6066 22.85C89.54 22.7833 89.4733 22.7667 89.4066 22.8C89.3066 22.8333 89.3066 22.9 89.4066 23C89.54 23.0667 89.5566 23.1333 89.4566 23.2L89.0566 23.4C88.3233 23.7667 87.74 23.95 87.3066 23.95ZM79.2066 23.65C79.0066 23.65 78.7566 23.4333 78.4566 23C78.2566 22.7333 78.1566 22.3167 78.1566 21.75C78.1566 21.1833 78.2566 20.5667 78.4566 19.9C78.69 19.2333 78.9733 18.65 79.3066 18.15C79.6733 17.4167 79.9233 16.8667 80.0566 16.5C80.19 16.1333 80.3233 15.8333 80.4566 15.6C80.4566 15.5667 80.4233 15.5333 80.3566 15.5C80.29 15.4667 80.2566 15.4 80.2566 15.3C80.0566 15.1667 79.84 14.9833 79.6066 14.75C79.4066 14.4833 79.39 14.2333 79.5566 14C79.6233 13.9333 79.6733 13.9 79.7066 13.9C79.74 13.8667 79.7566 13.85 79.7566 13.85V13.75C79.7566 13.6167 79.8066 13.5333 79.9066 13.5C80.04 13.4667 80.1066 13.4167 80.1066 13.35C80.1733 12.8833 80.5566 12.5333 81.2566 12.3C81.99 12.0667 82.64 11.95 83.2066 11.95C83.84 11.95 84.1566 12.05 84.1566 12.25C84.1566 12.35 84.04 12.4667 83.8066 12.6C83.7066 12.6333 83.54 12.7667 83.3066 13C83.0733 13.2333 82.8566 13.5167 82.6566 13.85L82.3066 14.45L81.9566 14.9C81.7566 15.2667 81.54 15.65 81.3066 16.05C81.1066 16.4167 80.7733 17.1167 80.3066 18.15C80.1733 18.4833 80.0566 18.8 79.9566 19.1C79.89 19.4 79.89 19.6333 79.9566 19.8C79.99 19.8333 79.8733 19.95 79.6066 20.15C79.3733 20.35 79.2733 20.4667 79.3066 20.5C79.34 20.5 79.39 20.5167 79.4566 20.55C79.5233 20.55 79.6066 20.55 79.7066 20.55C79.9066 20.55 80.1066 20.5167 80.3066 20.45C80.4066 20.4167 80.49 20.35 80.5566 20.25C80.6233 20.1167 80.6733 20.05 80.7066 20.05C80.9066 20.05 81.1233 20 81.3566 19.9C81.7233 19.7333 82.1733 19.4 82.7066 18.9C82.7733 18.8333 82.9066 18.7833 83.1066 18.75C83.3066 18.6833 83.4733 18.5667 83.6066 18.4C84.0066 18.0333 84.24 17.8167 84.3066 17.75C84.3733 17.65 84.5733 17.4333 84.9066 17.1C84.9066 17.0667 84.9733 16.9167 85.1066 16.65C85.24 16.35 85.3066 16.1833 85.3066 16.15C85.3733 15.9833 85.44 15.9 85.5066 15.9C85.64 15.9 85.74 16.0167 85.8066 16.25C85.9066 16.4833 85.9066 16.6833 85.8066 16.85C85.7733 16.8833 85.69 16.95 85.5566 17.05C85.4566 17.15 85.3733 17.2333 85.3066 17.3L84.6566 17.95L83.3066 19.15C83.2733 19.1833 83.24 19.2333 83.2066 19.3C83.1733 19.3667 83.1233 19.4333 83.0566 19.5L82.6066 20.2C82.5733 20.2667 82.5066 20.2667 82.4066 20.2C82.3066 20.1 82.1733 20.1167 82.0066 20.25C81.9733 20.2833 81.94 20.35 81.9066 20.45C81.9066 20.55 81.89 20.6333 81.8566 20.7C81.8233 20.8 81.8233 20.8667 81.8566 20.9C81.89 20.9 81.9066 20.9167 81.9066 20.95C81.8733 21.05 81.8066 21.1167 81.7066 21.15C81.64 21.1833 81.5733 21.2333 81.5066 21.3C81.4733 21.3333 81.4733 21.3833 81.5066 21.45C81.54 21.5167 81.5233 21.5833 81.4566 21.65C81.4233 21.75 81.39 21.7833 81.3566 21.75C81.3233 21.7167 81.2733 21.7333 81.2066 21.8C81.1733 21.8333 81.1233 21.8833 81.0566 21.95C81.0233 21.9833 80.9733 22.0167 80.9066 22.05C80.64 22.15 80.49 22.2833 80.4566 22.45C80.4233 22.6167 80.3066 22.8 80.1066 23C79.6733 23.4333 79.3733 23.65 79.2066 23.65Z" fill="#F0AD27"/>
</svg>
